<svg width="39" height="39" viewBox="0 0 39 39" fill="none" xmlns="http://www.w3.org/2000/svg">
<path d="M39 19.5C39 30.2696 30.2696 39 19.5 39C8.73045 39 0 30.2696 0 19.5C0 8.73045 8.73045 0 19.5 0C30.2696 0 39 8.73045 39 19.5Z" fill="#FFEB35"/>
<path d="M7.93934 17.9393C7.35355 18.5251 7.35355 19.4749 7.93934 20.0607L17.4853 29.6066C18.0711 30.1924 19.0208 30.1924 19.6066 29.6066C20.1924 29.0208 20.1924 28.0711 19.6066 27.4853L11.1213 19L19.6066 10.5147C20.1924 9.92893 20.1924 8.97918 19.6066 8.3934C19.0208 7.80761 18.0711 7.80761 17.4853 8.3934L7.93934 17.9393ZM29 17.5L9 17.5L9 20.5L29 20.5L29 17.5Z" fill="black"/>
</svg>
